<svg id="Capa_1" data-name="Capa 1" xmlns="http://www.w3.org/2000/svg" viewBox="0 0 500 501"><defs><style>.cls-1{font-size:18.92px;font-family:ElliotSans-Regular, Elliot Sans;}.cls-2{letter-spacing:-0.01em;}.cls-3{letter-spacing:0.01em;}.cls-4{letter-spacing:-0.08em;}.cls-5{letter-spacing:-0.01em;}.cls-6{letter-spacing:0.01em;}.cls-7{fill:#2bb7e0;}.cls-8{fill:#aeadaf;}</style></defs><title>Logos svg new breed</title><path d="M70.43,273.35H62.2v-45.7h9.14l22.85,32.64V227.65h8.23v45.7H93.28L70.43,240.71Z"/><path d="M118.74,235.88v10.51h23.9v8.23h-23.9v10.51h23.9v8.23H110.52v-45.7h32.12v8.23Z"/><path d="M160.66,273.35,148,227.65h8.55l8.36,30.29,8.36-30.29h8.55l8.36,30.29,8.42-30.29h8.49l-12.6,45.7h-8.55l-8.36-30.29-8.42,30.29Z"/><path d="M265.24,253.9a14.25,14.25,0,0,1-.46,12.83,12.8,12.8,0,0,1-4.83,4.86,13.39,13.39,0,0,1-6.79,1.76H229.4v-45.7h21.54a13.39,13.39,0,0,1,6.79,1.76,12.87,12.87,0,0,1,4.83,4.83,13.52,13.52,0,0,1,1.76,6.86,13.23,13.23,0,0,1-2.68,8.23A12.82,12.82,0,0,1,265.24,253.9Zm-27.62-7.51h13.32a5,5,0,0,0,3.72-1.47,5.24,5.24,0,0,0,1.44-3.82,5.15,5.15,0,0,0-1.44-3.75,5,5,0,0,0-3.72-1.47H237.63Zm19.26,17.27a5.23,5.23,0,0,0,1.44-3.82,5.15,5.15,0,0,0-1.44-3.75,5,5,0,0,0-3.72-1.47H237.63v10.51h15.54A5,5,0,0,0,256.89,263.66Z"/><path d="M302.26,273.35l-13.58-18.74h-7.25v18.74h-8.23v-45.7h21.61a13.52,13.52,0,0,1,6.86,1.76,12.81,12.81,0,0,1,4.83,4.86,13.69,13.69,0,0,1,1.76,6.89,13.26,13.26,0,0,1-2.71,8.26,12.85,12.85,0,0,1-7.08,4.73l14,19.19Zm-7.44-27a5.14,5.14,0,0,0,3.75-1.44,5.05,5.05,0,0,0,1.47-3.79,5.21,5.21,0,0,0-1.44-3.85,5.12,5.12,0,0,0-3.79-1.44H281.43v10.51Z"/><path d="M326.35,235.88v10.51h23.9v8.23h-23.9v10.51h23.9v8.23H318.13v-45.7h32.12v8.23Z"/><path d="M366.57,235.88v10.51h23.9v8.23h-23.9v10.51h23.9v8.23H358.34v-45.7h32.12v8.23Z"/><path d="M415.21,273.35H398.56v-45.7h16.65a22.61,22.61,0,0,1,11.49,3,21.62,21.62,0,0,1,8.13,8.19,24.34,24.34,0,0,1,0,23.31,21.85,21.85,0,0,1-8.13,8.23A22.42,22.42,0,0,1,415.21,273.35Zm-8.42-8.23h8.42a14.42,14.42,0,0,0,7.38-1.89,13.58,13.58,0,0,0,5.13-5.22,16.08,16.08,0,0,0,0-15,13.59,13.59,0,0,0-5.13-5.22,14.43,14.43,0,0,0-7.38-1.89h-8.42Z"/><text class="cls-1" transform="translate(146.64 298.48)"><tspan class="cls-2">T</tspan><tspan x="12.92" y="0">he m</tspan><tspan class="cls-3" x="53.48" y="0">a</tspan><tspan x="63.36" y="0">r</tspan><tspan class="cls-4" x="72.04" y="0">k</tspan><tspan x="80.71" y="0">eting </tspan><tspan class="cls-5" x="128.8" y="0">c</tspan><tspan x="137.84" y="0">o</tspan><tspan class="cls-6" x="148.68" y="0">m</tspan><tspan x="164.06" y="0">p</tspan><tspan class="cls-3" x="175.17" y="0">a</tspan><tspan x="185.04" y="0">n</tspan><tspan class="cls-4" x="194.95" y="0">y</tspan><tspan x="202.71" y="0">.</tspan></text><path class="cls-7" d="M123.27,282.06a4.71,4.71,0,0,0,4.72-4.71h-9.43A4.71,4.71,0,0,0,123.27,282.06Z"/><circle class="cls-7" cx="73.29" cy="287.88" r="4.72"/><circle class="cls-7" cx="82.72" cy="304.38" r="4.71"/><circle class="cls-7" cx="122.49" cy="291.81" r="4.71"/><circle class="cls-7" cx="115.1" cy="309.88" r="4.72"/><circle class="cls-7" cx="101.27" cy="316.17" r="4.72"/><circle class="cls-7" cx="122.02" cy="324.03" r="4.72"/><circle class="cls-7" cx="108.66" cy="331.57" r="4.71"/><circle class="cls-7" cx="140.88" cy="329.69" r="4.72"/><circle class="cls-7" cx="107.71" cy="353.26" r="4.72"/><circle class="cls-7" cx="115.1" cy="371.33" r="4.72"/><circle class="cls-7" cx="153.76" cy="336.29" r="4.71"/><circle class="cls-7" cx="159.58" cy="350.27" r="4.71"/><circle class="cls-7" cx="131.92" cy="380.76" r="4.72"/><circle class="cls-7" cx="163.19" cy="369.61" r="4.71"/><circle class="cls-7" cx="153.76" cy="382.02" r="4.71"/><circle class="cls-7" cx="167.91" cy="391.45" r="4.72"/><circle class="cls-7" cx="175.61" cy="378.09" r="4.72"/><circle class="cls-7" cx="194.78" cy="373.38" r="4.71"/><circle class="cls-7" cx="178.12" cy="410.94" r="4.72"/><circle class="cls-7" cx="209.4" cy="373.38" r="4.71"/><circle class="cls-7" cx="193.53" cy="422.57" r="4.72"/><circle class="cls-7" cx="221.5" cy="382.02" r="4.71"/><circle class="cls-7" cx="212.7" cy="422.57" r="4.72"/><circle class="cls-7" cx="233.76" cy="397.11" r="4.71"/><circle class="cls-7" cx="232.03" cy="412.2" r="4.72"/><circle class="cls-7" cx="249.01" cy="397.9" r="4.71"/><circle class="cls-7" cx="249.01" cy="413.14" r="4.71"/><circle class="cls-7" cx="263.31" cy="384.38" r="4.71"/><circle class="cls-7" cx="267.24" cy="425.08" r="4.72"/><circle class="cls-7" cx="276.04" cy="377.31" r="4.72"/><circle class="cls-7" cx="286.72" cy="427.29" r="4.72"/><circle class="cls-7" cx="303.38" cy="417.86" r="4.71"/><circle class="cls-7" cx="290.65" cy="378.88" r="4.71"/><circle class="cls-7" cx="309.04" cy="385.16" r="4.71"/><circle class="cls-7" cx="315.49" cy="399.31" r="4.72"/><circle class="cls-7" cx="330.42" cy="391.45" r="4.71"/><circle class="cls-7" cx="322.87" cy="378.88" r="4.71"/><circle class="cls-7" cx="328.37" cy="359.7" r="4.71"/><circle class="cls-7" cx="352.26" cy="393.18" r="4.71"/><circle class="cls-7" cx="335.92" cy="346.97" r="4.71"/><circle class="cls-7" cx="370.18" cy="385.16" r="4.71"/><circle class="cls-7" cx="349.28" cy="340.84" r="4.72"/><circle class="cls-7" cx="379.61" cy="368.4" r="4.71"/><circle class="cls-7" cx="381.02" cy="346.97" r="4.72"/><circle class="cls-7" cx="368.45" cy="337.54" r="4.71"/><circle class="cls-7" cx="390.45" cy="332.83" r="4.71"/><circle class="cls-7" cx="377.04" cy="324.71" r="4.71"/><circle class="cls-7" cx="372.33" cy="305.74" r="4.72"/><circle class="cls-7" cx="409.52" cy="322.51" r="4.71"/><path class="cls-7" d="M372.33,286.26a4.72,4.72,0,1,0,4.61,5.68l-4.61-1,4.61,1a4.72,4.72,0,0,0-4.61-5.68Z"/><circle class="cls-7" cx="421.36" cy="307.21" r="4.72"/><path class="cls-7" d="M376.2,279.24a4.72,4.72,0,1,0,9-1.89H376.6A4.7,4.7,0,0,0,376.2,279.24Z"/><circle class="cls-7" cx="421.36" cy="287.62" r="4.71"/><path class="cls-8" d="M117,277.8l-37.74,7.88a.81.81,0,0,0-.47,1c.1.49.48.81.84.74l37.73-7.88a.8.8,0,0,0,.47-1C117.71,278.05,117.33,277.72,117,277.8Z"/><path class="cls-8" d="M116.77,293.74c-.14-.47-.48-.79-.74-.71l-27.38,8.43c-.27.08-.36.53-.21,1s.48.79.74.71l27.38-8.42C116.82,294.66,116.92,294.21,116.77,293.74Z"/><path class="cls-8" d="M109.64,311.5l-3.56,1.6c-.19.08-.19.48,0,.88s.48.66.66.57l3.56-1.6c.19-.08.19-.47,0-.88S109.83,311.42,109.64,311.5Z"/><path class="cls-8" d="M116.75,326.09l-3.6,2c-.19.11-.17.5,0,.89s.54.61.73.5l3.6-2c.19-.1.17-.5,0-.88S116.94,326,116.75,326.09Z"/><path class="cls-8" d="M135.48,332.47,112.08,349c-.23.16-.18.61.11,1s.7.6.92.44l23.4-16.54c.22-.15.18-.61-.11-1S135.7,332.31,135.48,332.47Z"/><path class="cls-8" d="M149.19,340.39a.81.81,0,0,0-1.1-.21l-28.52,25.94a.93.93,0,0,0,1.2,1.32l28.52-25.94A.8.8,0,0,0,149.19,340.39Z"/><path class="cls-8" d="M155.73,354.56c-.36-.33-.81-.44-1-.23l-19.29,21.18c-.19.2,0,.64.33,1s.81.44,1,.24l19.3-21.18C156.24,355.33,156.1,354.9,155.73,354.56Z"/><path class="cls-8" d="M159.84,373.94c-.35-.26-.74-.33-.86-.17l-2.29,3.16c-.12.17.07.51.43.77s.74.33.86.17l2.29-3.16C160.39,374.54,160.2,374.2,159.84,373.94Z"/><path class="cls-8" d="M170.55,386.91c.38.22.78.24.89.05l2-3.59c.11-.19-.12-.52-.5-.73s-.78-.24-.89-.05l-2,3.59C169.94,386.37,170.17,386.69,170.55,386.91Z"/><path class="cls-8" d="M180.44,405.71c.45.2.91.16,1-.09l11.62-26.19c.11-.25-.16-.61-.62-.82s-.91-.16-1,.09l-11.62,26.19C179.71,405.14,180,405.51,180.44,405.71Z"/><path class="cls-8" d="M195.34,417a.81.81,0,0,0,1.06-.37l11.82-36.69c.11-.35-.18-.76-.65-.91a.8.8,0,0,0-1.06.36L194.7,416A.81.81,0,0,0,195.34,417Z"/><path class="cls-8" d="M220.2,387.8c-.48-.1-.92,0-1,.3l-6,28c-.06.27.29.57.77.67s.92,0,1-.3l6-28C221,388.21,220.69,387.9,220.2,387.8Z"/><path class="cls-8" d="M233.48,406.68l.41-3.88c0-.2-.31-.4-.75-.45s-.81.08-.83.29l-.41,3.88c0,.2.31.41.76.45S233.46,406.88,233.48,406.68Z"/><path class="cls-8" d="M249,408c.44,0,.79-.18.8-.39v-4.13c0-.22-.36-.39-.8-.39s-.8.18-.8.39v4.13C248.21,407.8,248.57,408,249,408Z"/><path class="cls-8" d="M263.83,390c-.49,0-.87.31-.84.58l2.79,28.52c0,.27.44.45.94.41s.87-.31.84-.58l-2.79-28.52C264.74,390.11,264.32,389.93,263.83,390Z"/><path class="cls-8" d="M285.51,421.85c.49-.1.82-.48.74-.84l-8-37.71a.8.8,0,0,0-1-.47c-.48.1-.82.48-.74.84l8,37.72A.8.8,0,0,0,285.51,421.85Z"/><path class="cls-8" d="M301.55,412.48c.47-.15.78-.49.7-.75l-8.76-27.28c-.08-.26-.53-.35-1-.2s-.78.49-.7.75l8.76,27.28C300.63,412.55,301.08,412.63,301.55,412.48Z"/><path class="cls-8" d="M313.24,394.34c.4-.18.65-.48.56-.67l-1.64-3.54c-.08-.19-.47-.19-.88,0s-.65.48-.56.67l1.63,3.54C312.45,394.53,312.84,394.53,313.24,394.34Z"/><path class="cls-8" d="M327.81,387.17c.38-.22.61-.54.5-.72l-2-3.37c-.1-.18-.49-.14-.87.08s-.6.54-.5.72l2,3.37C327,387.43,327.43,387.4,327.81,387.17Z"/><path class="cls-8" d="M331.73,364.36c-.4.29-.6.7-.44.92l16.6,23.35c.16.23.61.17,1-.11s.6-.7.44-.93l-16.6-23.35C332.59,364,332.13,364.07,331.73,364.36Z"/><path class="cls-8" d="M366.39,380.9a.81.81,0,0,0,.22-1.1l-25.78-28.66a.93.93,0,0,0-1.33,1.2L365.28,381A.8.8,0,0,0,366.39,380.9Z"/><path class="cls-8" d="M353.48,344.65c-.33.36-.43.81-.23,1l21.19,19.28c.2.19.63,0,1-.33s.43-.81.23-1l-21.19-19.28C354.25,344.13,353.81,344.28,353.48,344.65Z"/><path class="cls-8" d="M372.9,340.83c-.27.34-.35.73-.19.86l3.08,2.39c.16.12.51-.05.78-.4s.36-.73.19-.85l-3.08-2.39C373.53,340.31,373.18,340.49,372.9,340.83Z"/><path class="cls-8" d="M385,330.47c.17.11.5-.1.74-.48s.28-.76.1-.87l-3.31-2.06c-.17-.11-.5.11-.73.48s-.28.76-.11.87Z"/><path class="cls-8" d="M404.35,319.21l-26.11-11.8c-.25-.12-.62.16-.82.61s-.17.91.08,1l26.11,11.8c.25.12.61-.16.82-.61S404.6,319.33,404.35,319.21Z"/><path class="cls-8" d="M415.41,304.34l-35-11.68-2-.43a1,1,0,0,0-.41.55.81.81,0,0,0,.35,1.06L414.85,306c.35.12.76-.17.92-.63A.81.81,0,0,0,415.41,304.34Z"/><path class="cls-8" d="M378.84,292.14a.59.59,0,0,0-.5.08l2,.43Z"/><path class="cls-8" d="M415,287.23c.27.06.56-.29.67-.77s0-.92-.3-1l-28-5.86c-.27-.06-.57.29-.67.78s0,.92.31,1Z"/><circle class="cls-7" cx="223.54" cy="124.58" r="4.71"/><circle class="cls-7" cx="236.33" cy="117.25" r="4.71"/><circle class="cls-7" cx="208.67" cy="122.91" r="4.71"/><circle class="cls-7" cx="196.09" cy="83.93" r="4.71"/><circle class="cls-7" cx="212.44" cy="73.71" r="4.71"/><circle class="cls-7" cx="231.61" cy="76.18" r="4.71"/><circle class="cls-7" cx="168.85" cy="109.97" r="4.72"/><circle class="cls-7" cx="183.94" cy="101.64" r="4.72"/><circle class="cls-7" cx="190.38" cy="116.41" r="4.72"/><circle class="cls-7" cx="171.21" cy="141.72" r="4.71"/><circle class="cls-7" cx="176.55" cy="122.91" r="4.72"/><circle class="cls-7" cx="147" cy="108.71" r="4.72"/><circle class="cls-7" cx="129.09" cy="116.41" r="4.72"/><circle class="cls-7" cx="119.66" cy="133.23" r="4.71"/><circle class="cls-7" cx="150.15" cy="160.73" r="4.72"/><circle class="cls-7" cx="163.35" cy="154.76" r="4.71"/><circle class="cls-7" cx="130.97" cy="164.19" r="4.71"/><circle class="cls-7" cx="118.56" cy="154.76" r="4.71"/><circle class="cls-7" cx="122.49" cy="176.76" r="4.71"/><circle class="cls-7" cx="109.13" cy="168.9" r="4.71"/><circle class="cls-7" cx="127.2" cy="195.78" r="4.71"/><circle class="cls-7" cx="89.95" cy="179.12" r="4.71"/><circle class="cls-7" cx="127.2" cy="210.55" r="4.71"/><circle class="cls-7" cx="78.01" cy="194.52" r="4.72"/><path class="cls-7" d="M123.27,222.5a4.71,4.71,0,0,0-9.43,0h9.43Z"/><circle class="cls-7" cx="78.01" cy="213.85" r="4.72"/><circle class="cls-7" cx="426.71" cy="213.75" r="4.71"/><path class="cls-7" d="M376,219.51a4.71,4.71,0,0,0-4.38,3h8.77A4.71,4.71,0,0,0,376,219.51Z"/><circle class="cls-7" cx="377.46" cy="210.08" r="4.71"/><circle class="cls-7" cx="416.96" cy="196.99" r="4.71"/><circle class="cls-7" cx="384.17" cy="191.54" r="4.71"/><circle class="cls-7" cx="398.31" cy="185.04" r="4.71"/><circle class="cls-7" cx="377.46" cy="177.81" r="4.71"/><circle class="cls-7" cx="390.66" cy="170.06" r="4.72"/><circle class="cls-7" cx="391.82" cy="148.37" r="4.72"/><circle class="cls-7" cx="358.6" cy="172.05" r="4.72"/><circle class="cls-7" cx="384.27" cy="130.24" r="4.71"/><circle class="cls-7" cx="345.92" cy="164.92" r="4.72"/><circle class="cls-7" cx="367.4" cy="120.81" r="4.72"/><circle class="cls-7" cx="339.74" cy="151.41" r="4.72"/><circle class="cls-7" cx="336.49" cy="132.23" r="4.72"/><circle class="cls-7" cx="345.92" cy="119.45" r="4.72"/><circle class="cls-7" cx="331.36" cy="110.12" r="4.72"/><circle class="cls-7" cx="323.71" cy="123.54" r="4.71"/><circle class="cls-7" cx="321.41" cy="90.64" r="4.71"/><circle class="cls-7" cx="304.75" cy="128.25" r="4.72"/><circle class="cls-7" cx="290.08" cy="128.25" r="4.72"/><circle class="cls-7" cx="306" cy="79.11" r="4.71"/><circle class="cls-7" cx="278.13" cy="119.45" r="4.72"/><circle class="cls-7" cx="286.62" cy="79.11" r="4.71"/><circle class="cls-7" cx="267.13" cy="89.06" r="4.72"/><circle class="cls-7" cx="265.87" cy="104.57" r="4.72"/><circle class="cls-7" cx="250.26" cy="103.84" r="4.71"/><circle class="cls-7" cx="250.26" cy="88.12" r="4.71"/><path class="cls-8" d="M213.81,79.65c-.48.1-.81.48-.73.84l8.09,37.69a.81.81,0,0,0,1,.47c.48-.1.81-.48.73-.84l-8.09-37.69A.81.81,0,0,0,213.81,79.65Z"/><path class="cls-8" d="M197.83,89.31c-.47.15-.78.49-.7.75l8.79,27.27c.08.26.53.35,1,.2s.78-.49.7-.75l-8.79-27.27C198.76,89.25,198.31,89.16,197.83,89.31Z"/><path class="cls-8" d="M232.3,82c-.49.06-.86.32-.83.6L234.69,111c0,.27.45.45.95.39s.86-.32.83-.6l-3.23-28.47C233.22,82.1,232.79,81.93,232.3,82Z"/><path class="cls-8" d="M186,106.42c-.4.18-.65.51-.55.74l1.92,4.38c.1.23.51.27.91.1s.65-.51.55-.74l-1.92-4.38C186.83,106.29,186.42,106.24,186,106.42Z"/><path class="cls-8" d="M249.49,93.75l0,4.46c0,.23.35.43.79.43s.8-.18.8-.42l0-4.46c0-.24-.35-.43-.79-.43S249.49,93.51,249.49,93.75Z"/><path class="cls-8" d="M265.9,94.69l-.37,4.11c0,.22.32.42.76.46s.81-.1.83-.32l.37-4.11c0-.22-.32-.42-.76-.46S265.92,94.47,265.9,94.69Z"/><path class="cls-8" d="M171.58,114.51c-.38.22-.6.55-.5.72l2,3.36c.1.18.49.14.87-.08s.6-.55.5-.72l-2-3.36C172.36,114.25,172,114.28,171.58,114.51Z"/><path class="cls-8" d="M167.82,137.21c.4-.29.59-.71.43-.93L151.41,113.1c-.16-.22-.61-.17-1,.12s-.59.71-.43.93l16.83,23.18C167,137.55,167.41,137.5,167.82,137.21Z"/><path class="cls-8" d="M132.93,120.71a.81.81,0,0,0-.22,1.1l25.68,28.75a.93.93,0,0,0,1.34-1.19L134,120.62A.8.8,0,0,0,132.93,120.71Z"/><path class="cls-8" d="M145.89,157c.33-.36.44-.81.23-1l-21.24-19.23c-.2-.19-.64,0-1,.33s-.43.81-.23,1l21.24,19.23C145.12,157.47,145.56,157.32,145.89,157Z"/><path class="cls-8" d="M126.61,160.88c.27-.35.35-.73.19-.86l-3.11-2.36c-.16-.13-.51.06-.78.41s-.35.73-.18.86l3.11,2.36C126,161.41,126.35,161.23,126.61,160.88Z"/><path class="cls-8" d="M118,173.21l-3.54-2.12c-.19-.11-.52.1-.75.48s-.26.77-.07.89l3.54,2.12c.19.11.52-.1.74-.48S118.17,173.32,118,173.21Z"/><path class="cls-8" d="M95.11,182.47l26.2,11.59c.25.11.62-.16.82-.62s.16-.91-.09-1l-26.2-11.59c-.25-.11-.61.16-.82.62S94.86,182.36,95.11,182.47Z"/><path class="cls-8" d="M84,197.39l36.63,12a.93.93,0,0,0,.56-1.7l-36.63-12c-.35-.12-.76.17-.92.64A.81.81,0,0,0,84,197.39Z"/><path class="cls-8" d="M84.61,214.33c-.27-.06-.57.29-.67.77s0,.92.3,1l28,5.94c.27.06.57-.29.67-.77s0-.92-.3-1Z"/><path class="cls-8" d="M420.41,216a.8.8,0,0,0,.48-1c-.1-.49-.48-.82-.84-.74L382.29,222a.64.64,0,0,0-.46.48h7Z"/><path class="cls-8" d="M383.14,208.2c.15.46.5.78.75.69l27.2-9c.27-.08.34-.53.19-1s-.49-.78-.75-.69l-27.2,9C383.07,207.27,383,207.72,383.14,208.2Z"/><path class="cls-8" d="M392.7,186.77l-3.57,1.58c-.19.08-.2.47,0,.88s.47.66.66.58l3.57-1.58c.19-.08.2-.47,0-.88S392.89,186.69,392.7,186.77Z"/><path class="cls-8" d="M382.76,175.59l3.4-1.92c.17-.1.15-.49-.07-.88s-.54-.61-.71-.51L382,174.2c-.18.09-.15.49.07.87S382.58,175.69,382.76,175.59Z"/><path class="cls-8" d="M364.06,169.25l23.33-16.62c.23-.16.17-.61-.11-1s-.7-.6-.93-.44L363,167.79c-.22.15-.17.61.11,1S363.84,169.41,364.06,169.25Z"/><path class="cls-8" d="M350.34,161a.81.81,0,0,0,1.1.21L380,135.28a.93.93,0,0,0-1.2-1.32l-28.53,25.92A.81.81,0,0,0,350.34,161Z"/><path class="cls-8" d="M343.63,147.1c.36.33.81.43,1,.23l19.22-21.25c.19-.2,0-.63-.33-1s-.81-.43-1-.23L343.3,146.13C343.12,146.34,343.26,146.77,343.63,147.1Z"/><path class="cls-8" d="M339.83,127.71c.35.26.74.34.86.17l2.32-3.13c.12-.16-.06-.51-.42-.77s-.74-.34-.86-.17l-2.32,3.14C339.28,127.1,339.47,127.45,339.83,127.71Z"/><path class="cls-8" d="M328.68,114.81c-.38-.22-.77-.25-.87-.07l-1.92,3.4c-.11.17.12.49.51.71s.77.25.88.07l1.92-3.39C329.29,115.35,329.07,115,328.68,114.81Z"/><path class="cls-8" d="M319.11,95.9c-.45-.2-.91-.16-1,.09l-11.66,26.17c-.11.25.16.62.61.82s.91.16,1-.09l11.66-26.17C319.84,96.47,319.56,96.11,319.11,95.9Z"/><path class="cls-8" d="M304.18,84.7a.81.81,0,0,0-1.06.36l-11.87,36.68a.93.93,0,0,0,1.7.55l11.87-36.68C304.94,85.26,304.65,84.86,304.18,84.7Z"/><path class="cls-8" d="M279.37,113.8c.48.1.92,0,1-.31l5.82-28.05c.06-.27-.29-.57-.77-.67s-.92,0-1,.31l-5.82,28.05C278.53,113.39,278.88,113.7,279.37,113.8Z"/></svg>