<?xml version="1.0" encoding="UTF-8" standalone="no"?>
<svg
   xmlns:dc="http://purl.org/dc/elements/1.1/"
   xmlns:cc="http://creativecommons.org/ns#"
   xmlns:rdf="http://www.w3.org/1999/02/22-rdf-syntax-ns#"
   xmlns:svg="http://www.w3.org/2000/svg"
   xmlns="http://www.w3.org/2000/svg"
   xmlns:sodipodi="http://sodipodi.sourceforge.net/DTD/sodipodi-0.dtd"
   xmlns:inkscape="http://www.inkscape.org/namespaces/inkscape"
   id="Capa_1"
   data-name="Capa 1"
   viewBox="0 0 464.66998 99.656593"
   version="1.1"
   sodipodi:docname="Logos svg crediamigo-12.svg"
   width="464.66998"
   height="99.656593"
   inkscape:version="0.92.3 (2405546, 2018-03-11)">
  <metadata
     id="metadata105">
    <rdf:RDF>
      <cc:Work
         rdf:about="">
        <dc:format>image/svg+xml</dc:format>
        <dc:type
           rdf:resource="http://purl.org/dc/dcmitype/StillImage" />
      </cc:Work>
    </rdf:RDF>
  </metadata>
  <sodipodi:namedview
     pagecolor="#ffffff"
     bordercolor="#666666"
     borderopacity="1"
     objecttolerance="10"
     gridtolerance="10"
     guidetolerance="10"
     inkscape:pageopacity="0"
     inkscape:pageshadow="2"
     inkscape:window-width="1366"
     inkscape:window-height="689"
     id="namedview103"
     showgrid="false"
     inkscape:zoom="0.47105788"
     inkscape:cx="-13.904239"
     inkscape:cy="45.604237"
     inkscape:window-x="0"
     inkscape:window-y="0"
     inkscape:window-maximized="1"
     inkscape:current-layer="Capa_1" />
  <defs
     id="defs4">
    <style
       id="style2">.cls-1{fill:#6ec829;}.cls-2{fill:#5c5c60;}</style>
  </defs>
  <title
     id="title6">Logos svg crediamigo</title>
  <path
     class="cls-1"
     d="m 30.999998,88.886596 -4.27,10.73 h -15.38 l 7.44,-18.78 a 44.51,44.51 0 1 1 70.23,-36.34 h -14.24 a 30.2,30.2 0 0 0 -29.27,-30.19 l 34,85.35 h -15.34 l -4.39,-10.12 z m -6.59,-21.83 20.94,-52.75 h -0.85 a 30.23,30.23 0 0 0 -20.12,52.8 m 29.87,7.68 -8.78,-22.07 -8.54,21.09 a 29.2,29.2 0 0 0 5.85,1 z"
     id="path8"
     inkscape:connector-curvature="0"
     style="fill:#6ec829" />
  <path
     class="cls-2"
     d="m 110.91,65.056596 a 10.8,10.8 0 1 1 0,-21.6 11,11 0 0 1 6.27,2 v 2.92 a 8.34,8.34 0 0 0 -6.27,-2.86 8.72,8.72 0 0 0 0,17.44 8.32,8.32 0 0 0 6.24,-2.83 v 2.92 a 11,11 0 0 1 -6.24,2.01 z"
     id="path10"
     inkscape:connector-curvature="0"
     style="fill:#5c5c60" />
  <path
     class="cls-2"
     d="m 135.57,49.726596 c 0,3.49 -1.91,5 -4.5,5.51 l 5.63,8.26 -1.73,1.41 -6.29,-9.41 h -4.33 v 9.1 h -2.28 v -20.64 h 6.09 c 3.94,0 7.41,1.07 7.41,5.77 z m -11.22,3.73 h 3.81 c 2.8,0 5.08,-0.84 5.08,-3.72 0,-2.88 -2.28,-3.72 -5.08,-3.72 h -3.81 z"
     id="path12"
     inkscape:connector-curvature="0"
     style="fill:#5c5c60" />
  <path
     class="cls-2"
     d="m 153.35,62.546596 -0.69,2 h -12 v -20.68 h 12.69 l -0.69,2.05 h -9.7 v 7.39 h 8.58 l -0.69,2 h -7.88 v 7.25 z"
     id="path14"
     inkscape:connector-curvature="0"
     style="fill:#5c5c60" />
  <path
     class="cls-2"
     d="m 173.91,54.236596 c 0.29,5.95 -4,10.37 -10.37,10.37 h -6.41 v -20.74 h 6.41 c 6.36,0 10.66,4.07 10.37,10.37 z m -14.56,8.34 h 4.16 a 7.93,7.93 0 0 0 8.08,-8.34 c 0.29,-4.68 -3,-8.32 -8.08,-8.32 h -4.16 z"
     id="path16"
     inkscape:connector-curvature="0"
     style="fill:#5c5c60" />
  <path
     class="cls-2"
     d="m 178.82,44.386596 2.25,-0.69 v 20.9 h -2.25 z"
     id="path18"
     inkscape:connector-curvature="0"
     style="fill:#5c5c60" />
  <path
     class="cls-2"
     d="m 205.81,60.006596 h -9.3 l -1.93,4.59 h -2.23 l 8.84,-21 8.84,21 h -2.28 z m -4.65,-11.06 -3.78,9 h 7.59 z"
     id="path20"
     inkscape:connector-curvature="0"
     style="fill:#5c5c60" />
  <path
     class="cls-2"
     d="m 233.04,43.636596 4.13,21 h -2.25 l -2.71,-14.75 -7.07,14.09 -7,-14.09 -2.79,14.71 h -2.25 l 4.19,-20.9 7.88,15.33 z"
     id="path22"
     inkscape:connector-curvature="0"
     style="fill:#5c5c60" />
  <path
     class="cls-2"
     d="m 241.96,44.386596 2.25,-0.69 v 20.9 h -2.25 z"
     id="path24"
     inkscape:connector-curvature="0"
     style="fill:#5c5c60" />
  <path
     class="cls-2"
     d="m 259.92,65.056596 a 10.800094,10.800094 0 0 1 -0.09,-21.6 10.57,10.57 0 0 1 6.58,2.19 v 3 a 8.4,8.4 0 0 0 -6.58,-3.12 8.7201161,8.7201161 0 0 0 0.09,17.44 8.45,8.45 0 0 0 5.57,-2.14 v -3.81 h -5.37 l 0.69,-2 h 7 v 6.67 a 10.93,10.93 0 0 1 -7.89,3.37 z"
     id="path26"
     inkscape:connector-curvature="0"
     style="fill:#5c5c60" />
  <path
     class="cls-2"
     d="m 271.81,54.306596 a 10.8,10.8 0 1 1 10.8,10.8 10.82,10.82 0 0 1 -10.8,-10.8 z m 19.29,0 a 8.49,8.49 0 1 0 -8.49,8.72 8.63,8.63 0 0 0 8.49,-8.72 z"
     id="path28"
     inkscape:connector-curvature="0"
     style="fill:#5c5c60" />
  <path
     class="cls-2"
     d="m 298.8,63.066596 2.89,-0.69 -3.46,4.82 h -1.65 z"
     id="path30"
     inkscape:connector-curvature="0"
     style="fill:#5c5c60" />
  <path
     class="cls-2"
     d="m 319.22,52.816596 c 2.63,0.92 6.76,2.25 6.76,6.06 0,3.81 -2.48,6 -7.59,6 a 9.9,9.9 0 0 1 -6.58,-2.28 v -2.54 a 12.44,12.44 0 0 0 6.58,2.69 c 3.75,0 5.2,-1.62 5.2,-3.9 0,-2.28 -2.94,-3.15 -5.49,-4 -2.34,-0.81 -6.24,-2.28 -6.24,-5.8 0,-4.13 3.35,-5.63 6.61,-5.63 a 8.26,8.26 0 0 1 5.89,2 v 2.45 a 8.07,8.07 0 0 0 -5.89,-2.28 c -2.69,0 -4.22,1 -4.22,3.46 0,2.04 2.63,2.93 4.97,3.77 z"
     id="path32"
     inkscape:connector-curvature="0"
     style="fill:#5c5c60" />
  <path
     class="cls-2"
     d="m 329.73,62.376596 h 2.25 v 2.22 h -2.25 z"
     id="path34"
     inkscape:connector-curvature="0"
     style="fill:#5c5c60" />
  <path
     class="cls-2"
     d="m 348.64,60.006596 h -9.29 l -1.93,4.59 h -2.27 l 8.84,-21 8.83,21 h -2.25 z m -4.65,-11.06 -3.78,9 h 7.59 z"
     id="path36"
     inkscape:connector-curvature="0"
     style="fill:#5c5c60" />
  <path
     class="cls-2"
     d="m 356,62.376596 h 2.25 v 2.22 H 356 Z"
     id="path38"
     inkscape:connector-curvature="0"
     style="fill:#5c5c60" />
  <path
     class="cls-2"
     d="m 387.15,54.236596 c 0.29,5.95 -4,10.37 -10.37,10.37 h -6.43 v -20.74 h 6.41 c 6.38,0 10.68,4.07 10.39,10.37 z m -14.52,8.34 h 4.16 a 7.93,7.93 0 0 0 8.08,-8.34 c 0.29,-4.68 -3,-8.32 -8.08,-8.32 h -4.16 z"
     id="path40"
     inkscape:connector-curvature="0"
     style="fill:#5c5c60" />
  <path
     class="cls-2"
     d="m 404.7,62.546596 -0.69,2 h -12 v -20.68 h 12.65 l -0.69,2.05 h -9.62 v 7.39 h 8.58 l -0.69,2 h -7.89 v 7.25 z"
     id="path42"
     inkscape:connector-curvature="0"
     style="fill:#5c5c60" />
  <path
     class="cls-2"
     d="m 425.61,65.056596 a 10.8,10.8 0 0 1 0,-21.6 11,11 0 0 1 6.27,2 v 2.92 a 8.34,8.34 0 0 0 -6.27,-2.86 8.72,8.72 0 0 0 0,17.44 8.32,8.32 0 0 0 6.24,-2.83 v 2.92 a 11,11 0 0 1 -6.24,2.01 z"
     id="path44"
     inkscape:connector-curvature="0"
     style="fill:#5c5c60" />
  <path
     class="cls-2"
     d="m 435.91,62.376596 h 2.25 v 2.22 h -2.25 z"
     id="path46"
     inkscape:connector-curvature="0"
     style="fill:#5c5c60" />
  <path
     class="cls-2"
     d="m 441.35,44.386596 2.28,-0.69 6.67,15.91 6.7,-15.91 2.25,0.69 -9,20.53 z"
     id="path48"
     inkscape:connector-curvature="0"
     style="fill:#5c5c60" />
  <path
     class="cls-2"
     d="m 462.42,62.376596 h 2.25 v 2.22 h -2.25 z"
     id="path50"
     inkscape:connector-curvature="0"
     style="fill:#5c5c60" />
  <path
     class="cls-2"
     d="m 128.78,77.756596 h 0.81 v 10.86 h 6.42 v 0.8 h -7.24 z"
     id="path52"
     inkscape:connector-curvature="0"
     style="fill:#5c5c60" />
  <path
     class="cls-2"
     d="m 142.61,77.676596 h 0.74 l 5.09,11.74 h -0.89 l -1.39,-3.26 h -6.41 l -1.4,3.26 h -0.84 z m 3.25,7.69 -2.88,-6.74 -2.89,6.74 z"
     id="path54"
     inkscape:connector-curvature="0"
     style="fill:#5c5c60" />
  <path
     class="cls-2"
     d="m 155.49,77.756596 h 0.77 l 4.39,6.89 4.39,-6.89 h 0.77 v 11.65 H 165 v -10.1 l -4.33,6.71 h -0.06 l -4.34,-6.71 v 10.12 h -0.78 z"
     id="path56"
     inkscape:connector-curvature="0"
     style="fill:#5c5c60" />
  <path
     class="cls-2"
     d="m 173.21,77.676596 h 0.78 l 5.09,11.74 h -0.89 l -1.39,-3.26 h -6.45 l -1.39,3.26 h -0.84 z m 3.25,7.69 -2.88,-6.74 -2.89,6.74 z"
     id="path58"
     inkscape:connector-curvature="0"
     style="fill:#5c5c60" />
  <path
     class="cls-2"
     d="m 181.35,77.756596 h 0.77 l 7.55,10.14 v -10.14 h 0.78 v 11.65 h -0.61 l -7.7,-10.36 v 10.36 h -0.79 z"
     id="path60"
     inkscape:connector-curvature="0"
     style="fill:#5c5c60" />
  <path
     class="cls-2"
     d="m 193.25,83.616596 v 0 c 0,-3.18 2.2,-6 5.52,-6 3.32,0 5.48,2.81 5.48,6 0,0 0,0 0,0 0,3.18 -2.2,6 -5.52,6 -3.32,0 -5.48,-2.82 -5.48,-6 z m 10.16,0 v 0 c 0,-2.88 -2,-5.24 -4.67,-5.24 -2.67,0 -4.64,2.33 -4.64,5.21 v 0 c 0,2.88 2,5.24 4.67,5.24 2.67,0 4.64,-2.33 4.64,-5.21 z"
     id="path62"
     inkscape:connector-curvature="0"
     style="fill:#5c5c60" />
  <path
     class="cls-2"
     d="m 211.71,77.756596 h 3.64 a 5.62,5.62 0 0 1 5.81,5.79 v 0 a 5.64,5.64 0 0 1 -5.81,5.83 h -3.64 z m 3.64,10.86 a 4.79,4.79 0 0 0 5,-5 v 0 a 4.82,4.82 0 0 0 -5,-5 h -2.83 v 10.06 z"
     id="path64"
     inkscape:connector-curvature="0"
     style="fill:#5c5c60" />
  <path
     class="cls-2"
     d="m 223.93,77.756596 h 7.78 v 0.8 h -7 v 4.58 h 6.27 v 0.8 h -6.27 v 4.68 h 7 v 0.8 h -7.86 z"
     id="path66"
     inkscape:connector-curvature="0"
     style="fill:#5c5c60" />
  <path
     class="cls-2"
     d="m 234.35,77.756596 h 4.59 a 4.16,4.16 0 0 1 3.08,1.15 3.18,3.18 0 0 1 0.83,2.16 v 0 c 0,1.95 -1.36,3.06 -3.2,3.33 l 3.61,5 h -1 l -3.48,-4.83 h -3.58 v 4.83 h -0.85 z m 4.5,6 c 1.83,0 3.19,-1 3.19,-2.66 v 0 c 0,-1.57 -1.16,-2.55 -3.14,-2.55 h -3.73 v 5.24 z"
     id="path68"
     inkscape:connector-curvature="0"
     style="fill:#5c5c60" />
  <path
     class="cls-2"
     d="m 245.7,77.756596 h 7.78 v 0.8 h -7 v 4.58 h 6.27 v 0.8 h -6.27 v 4.68 h 7 v 0.8 h -7.86 z"
     id="path70"
     inkscape:connector-curvature="0"
     style="fill:#5c5c60" />
  <path
     class="cls-2"
     d="m 255.68,83.616596 v 0 c 0,-3.3 2.31,-6 5.47,-6 a 5.6,5.6 0 0 1 4.25,1.86 l -0.58,0.63 a 4.89,4.89 0 0 0 -3.69,-1.71 c -2.63,0 -4.61,2.28 -4.61,5.21 v 0 c 0,2.95 2,5.24 4.63,5.24 a 4.88,4.88 0 0 0 3.77,-1.81 l 0.55,0.57 a 5.62,5.62 0 0 1 -4.34,2 c -3.14,0.01 -5.45,-2.64 -5.45,-5.99 z"
     id="path72"
     inkscape:connector-curvature="0"
     style="fill:#5c5c60" />
  <path
     class="cls-2"
     d="m 267.7,77.756596 h 0.81 v 5.39 h 7 v -5.39 h 0.84 v 11.65 h -0.81 v -5.46 h -7 v 5.46 h -0.81 z"
     id="path74"
     inkscape:connector-curvature="0"
     style="fill:#5c5c60" />
  <path
     class="cls-2"
     d="m 283.73,77.676596 h 0.78 l 5.09,11.74 h -0.89 l -1.36,-3.27 h -6.45 l -1.39,3.26 h -0.84 z m 3.25,7.69 -2.88,-6.74 -2.89,6.74 z"
     id="path76"
     inkscape:connector-curvature="0"
     style="fill:#5c5c60" />
  <path
     class="cls-2"
     d="m 296.61,77.756596 h 3.64 a 5.62,5.62 0 0 1 5.81,5.79 v 0 a 5.64,5.64 0 0 1 -5.81,5.83 h -3.64 z m 3.64,10.86 a 4.79,4.79 0 0 0 5,-5 v 0 a 4.82,4.82 0 0 0 -5,-5 h -2.83 v 10.06 z"
     id="path78"
     inkscape:connector-curvature="0"
     style="fill:#5c5c60" />
  <path
     class="cls-2"
     d="m 308.83,77.756596 h 7.78 v 0.8 h -7 v 4.58 h 6.27 v 0.8 h -6.27 v 4.68 h 7 v 0.8 h -7.86 z"
     id="path80"
     inkscape:connector-curvature="0"
     style="fill:#5c5c60" />
  <path
     class="cls-2"
     d="m 327.02,78.556596 h -3.81 v -0.8 h 8.44 v 0.8 h -3.81 v 10.86 h -0.81 z"
     id="path82"
     inkscape:connector-curvature="0"
     style="fill:#5c5c60" />
  <path
     class="cls-2"
     d="m 333.94,84.566596 v -6.81 h 0.81 v 6.73 c 0,2.75 1.39,4.33 3.7,4.33 2.31,0 3.64,-1.43 3.64,-4.25 v -6.81 h 0.81 v 6.71 c 0,3.35 -1.83,5.13 -4.48,5.13 -2.65,0 -4.48,-1.77 -4.48,-5.03 z"
     id="path84"
     inkscape:connector-curvature="0"
     style="fill:#5c5c60" />
  <path
     class="cls-2"
     d="m 350.67,77.756596 h 4.52 a 3.83,3.83 0 0 1 2.84,1 2.6,2.6 0 0 1 0.7,1.83 v 0 a 2.86,2.86 0 0 1 -1.86,2.76 2.88,2.88 0 0 1 2.47,2.78 v 0 c 0,1.95 -1.56,3.18 -3.92,3.18 h -4.75 z m 4.42,5.38 c 1.64,0 2.81,-0.85 2.81,-2.4 v 0 c 0,-1.28 -1,-2.15 -2.73,-2.15 h -3.69 v 4.58 z m 0.36,5.48 c 1.88,0 3.06,-0.92 3.06,-2.38 v 0 c 0,-1.43 -1.17,-2.26 -3.33,-2.26 h -3.7 v 4.68 z"
     id="path86"
     inkscape:connector-curvature="0"
     style="fill:#5c5c60" />
  <path
     class="cls-2"
     d="m 361.47,83.616596 v 0 c 0,-3.18 2.2,-6 5.52,-6 3.32,0 5.49,2.81 5.49,6 0,0 0,0 0,0 0,3.18 -2.2,6 -5.52,6 -3.32,0 -5.49,-2.82 -5.49,-6 z m 10.16,0 v 0 c 0,-2.88 -2,-5.24 -4.67,-5.24 -2.67,0 -4.64,2.33 -4.64,5.21 v 0 c 0,2.88 2,5.24 4.67,5.24 2.67,0 4.64,-2.33 4.64,-5.21 z"
     id="path88"
     inkscape:connector-curvature="0"
     style="fill:#5c5c60" />
  <path
     class="cls-2"
     d="m 375.24,77.756596 h 0.81 v 10.86 h 6.42 v 0.8 h -7.24 z"
     id="path90"
     inkscape:connector-curvature="0"
     style="fill:#5c5c60" />
  <path
     class="cls-2"
     d="m 384.21,87.716596 0.53,-0.65 a 5.15,5.15 0 0 0 3.92,1.73 c 1.64,0 2.77,-1 2.77,-2.31 v 0 c 0,-1.23 -0.61,-1.95 -3.09,-2.48 -2.48,-0.53 -3.69,-1.52 -3.69,-3.28 v 0 a 3.23,3.23 0 0 1 3.52,-3.06 5.25,5.25 0 0 1 3.75,1.42 l -0.52,0.68 a 4.55,4.55 0 0 0 -3.27,-1.32 2.39,2.39 0 0 0 -2.67,2.2 v 0 c 0,1.23 0.59,2 3.19,2.55 2.6,0.55 3.59,1.51 3.59,3.21 v 0 c 0,1.88 -1.52,3.18 -3.63,3.18 a 6,6 0 0 1 -4.4,-1.87 z"
     id="path92"
     inkscape:connector-curvature="0"
     style="fill:#5c5c60" />
  <path
     class="cls-2"
     d="m 395.02,77.756596 h 0.81 v 11.65 h -0.81 z"
     id="path94"
     inkscape:connector-curvature="0"
     style="fill:#5c5c60" />
  <path
     class="cls-2"
     d="M 399.19,77.756596 H 400 v 10.86 h 6.42 v 0.8 h -7.24 z"
     id="path96"
     inkscape:connector-curvature="0"
     style="fill:#5c5c60" />
  <path
     class="cls-2"
     d="m 408.87,77.756596 h 0.81 v 10.86 h 6.42 v 0.8 h -7.24 z"
     id="path98"
     inkscape:connector-curvature="0"
     style="fill:#5c5c60" />
  <path
     class="cls-2"
     d="m 417.43,83.616596 v 0 c 0,-3.18 2.2,-6 5.52,-6 3.32,0 5.49,2.81 5.49,6 0,0 0,0 0,0 0,3.18 -2.2,6 -5.52,6 -3.32,0 -5.49,-2.82 -5.49,-6 z m 10.16,0 v 0 c 0,-2.88 -2,-5.24 -4.67,-5.24 -2.67,0 -4.64,2.33 -4.64,5.21 v 0 c 0,2.88 2,5.24 4.67,5.24 2.67,0 4.64,-2.33 4.64,-5.21 z"
     id="path100"
     inkscape:connector-curvature="0"
     style="fill:#5c5c60" />
</svg>
